<mxfile host="app.diagrams.net" agent="Mozilla/5.0 (Windows NT 10.0; Win64; x64) AppleWebKit/537.36 (KHTML, like Gecko) Chrome/135.0.0.0 Safari/537.36" version="26.2.5">
  <diagram name="Page-1" id="K4kn3VEHJBshqKb5gfc0">
    <mxGraphModel dx="1529" dy="2098" grid="1" gridSize="10" guides="1" tooltips="1" connect="1" arrows="1" fold="1" page="1" pageScale="1" pageWidth="827" pageHeight="1169" math="0" shadow="0">
      <root>
        <mxCell id="0" />
        <mxCell id="1" parent="0" />
        <mxCell id="QXYiQhnaTf1eU_bBLhSX-39" value="" style="rounded=1;whiteSpace=wrap;html=1;opacity=35;fillColor=#60a917;fontColor=#ffffff;strokeColor=#2D7600;rotation=0;" parent="1" vertex="1">
          <mxGeometry x="827" y="260" width="398" height="195" as="geometry" />
        </mxCell>
        <mxCell id="QXYiQhnaTf1eU_bBLhSX-40" value="" style="rounded=1;whiteSpace=wrap;html=1;opacity=35;fillColor=#008a00;fontColor=#ffffff;strokeColor=#005700;rotation=0;" parent="1" vertex="1">
          <mxGeometry x="827" y="70" width="398" height="170" as="geometry" />
        </mxCell>
        <mxCell id="QXYiQhnaTf1eU_bBLhSX-36" value="" style="rounded=1;whiteSpace=wrap;html=1;opacity=35;fillColor=#d80073;fontColor=#ffffff;strokeColor=#A50040;rotation=0;" parent="1" vertex="1">
          <mxGeometry x="222" y="90" width="398" height="170" as="geometry" />
        </mxCell>
        <mxCell id="QXYiQhnaTf1eU_bBLhSX-35" value="" style="rounded=1;whiteSpace=wrap;html=1;opacity=35;fillColor=#6a00ff;fontColor=#ffffff;strokeColor=#3700CC;rotation=0;" parent="1" vertex="1">
          <mxGeometry x="222" y="280" width="398" height="170" as="geometry" />
        </mxCell>
        <mxCell id="QXYiQhnaTf1eU_bBLhSX-37" value="" style="rounded=1;whiteSpace=wrap;html=1;opacity=35;fillColor=#a20025;fontColor=#ffffff;strokeColor=#6F0000;rotation=0;" parent="1" vertex="1">
          <mxGeometry x="302" y="470" width="829" height="180" as="geometry" />
        </mxCell>
        <mxCell id="QXYiQhnaTf1eU_bBLhSX-1" value="" style="image;html=1;image=img/lib/clip_art/networking/Switch_128x128.png" parent="1" vertex="1">
          <mxGeometry x="385" y="430" width="80" height="80" as="geometry" />
        </mxCell>
        <mxCell id="QXYiQhnaTf1eU_bBLhSX-2" value="" style="image;html=1;image=img/lib/clip_art/networking/Router_128x128.png" parent="1" vertex="1">
          <mxGeometry x="210" y="230" width="80" height="80" as="geometry" />
        </mxCell>
        <mxCell id="QXYiQhnaTf1eU_bBLhSX-3" value="" style="image;html=1;image=img/lib/clip_art/networking/Router_128x128.png" parent="1" vertex="1">
          <mxGeometry x="540" y="220" width="80" height="80" as="geometry" />
        </mxCell>
        <mxCell id="QXYiQhnaTf1eU_bBLhSX-4" value="" style="sketch=0;points=[[0.015,0.015,0],[0.985,0.015,0],[0.985,0.985,0],[0.015,0.985,0],[0.25,0,0],[0.5,0,0],[0.75,0,0],[1,0.25,0],[1,0.5,0],[1,0.75,0],[0.75,1,0],[0.5,1,0],[0.25,1,0],[0,0.75,0],[0,0.5,0],[0,0.25,0]];verticalLabelPosition=bottom;html=1;verticalAlign=top;aspect=fixed;align=center;pointerEvents=1;shape=mxgraph.cisco19.rect;prIcon=layer3_nexus_5k_switch;fillColor=#FAFAFA;strokeColor=#005073;" parent="1" vertex="1">
          <mxGeometry x="395" y="40" width="50" height="50" as="geometry" />
        </mxCell>
        <mxCell id="QXYiQhnaTf1eU_bBLhSX-5" value="Gig1/0/3&lt;div&gt;access&lt;/div&gt;" style="rounded=0;whiteSpace=wrap;html=1;" parent="1" vertex="1">
          <mxGeometry x="340" y="-20" width="85" height="30" as="geometry" />
        </mxCell>
        <mxCell id="QXYiQhnaTf1eU_bBLhSX-6" value="Gig0/0.10" style="rounded=0;whiteSpace=wrap;html=1;" parent="1" vertex="1">
          <mxGeometry x="270" y="200" width="60" height="30" as="geometry" />
        </mxCell>
        <mxCell id="QXYiQhnaTf1eU_bBLhSX-7" value="Gig1/0/2&lt;div&gt;trunked 10&lt;/div&gt;" style="rounded=0;whiteSpace=wrap;html=1;" parent="1" vertex="1">
          <mxGeometry x="470" y="120" width="60" height="30" as="geometry" />
        </mxCell>
        <mxCell id="QXYiQhnaTf1eU_bBLhSX-8" value="Gig0/0.10" style="rounded=0;whiteSpace=wrap;html=1;" parent="1" vertex="1">
          <mxGeometry x="510" y="200" width="60" height="30" as="geometry" />
        </mxCell>
        <mxCell id="QXYiQhnaTf1eU_bBLhSX-9" value="Gig0/1.5" style="rounded=0;whiteSpace=wrap;html=1;" parent="1" vertex="1">
          <mxGeometry x="540" y="290" width="60" height="30" as="geometry" />
        </mxCell>
        <mxCell id="QXYiQhnaTf1eU_bBLhSX-10" value="Gig0/2" style="rounded=0;whiteSpace=wrap;html=1;" parent="1" vertex="1">
          <mxGeometry x="1090" y="380" width="60" height="30" as="geometry" />
        </mxCell>
        <mxCell id="QXYiQhnaTf1eU_bBLhSX-11" value="Gig0/1.5" style="rounded=0;whiteSpace=wrap;html=1;" parent="1" vertex="1">
          <mxGeometry x="270" y="310" width="60" height="30" as="geometry" />
        </mxCell>
        <mxCell id="QXYiQhnaTf1eU_bBLhSX-13" value="fa0/1&lt;div&gt;trunked 5&lt;/div&gt;" style="rounded=0;whiteSpace=wrap;html=1;" parent="1" vertex="1">
          <mxGeometry x="325" y="400" width="60" height="30" as="geometry" />
        </mxCell>
        <mxCell id="QXYiQhnaTf1eU_bBLhSX-14" value="" style="image;html=1;image=img/lib/clip_art/networking/Switch_128x128.png" parent="1" vertex="1">
          <mxGeometry x="392" y="587.5" width="80" height="80" as="geometry" />
        </mxCell>
        <mxCell id="QXYiQhnaTf1eU_bBLhSX-15" value="fa0/3 trunked 5" style="rounded=0;whiteSpace=wrap;html=1;" parent="1" vertex="1">
          <mxGeometry x="385" y="500" width="70" height="30" as="geometry" />
        </mxCell>
        <mxCell id="QXYiQhnaTf1eU_bBLhSX-16" value="gig1/0/3&lt;div&gt;trunked 5&lt;/div&gt;" style="rounded=0;whiteSpace=wrap;html=1;" parent="1" vertex="1">
          <mxGeometry x="392" y="570" width="56" height="30" as="geometry" />
        </mxCell>
        <mxCell id="QXYiQhnaTf1eU_bBLhSX-17" value="gig1/0/1 trunked 5,20&lt;div&gt;gig1/0/2 trunked 5 20&lt;/div&gt;" style="rounded=0;whiteSpace=wrap;html=1;" parent="1" vertex="1">
          <mxGeometry x="500" y="585" width="90" height="90" as="geometry" />
        </mxCell>
        <mxCell id="QXYiQhnaTf1eU_bBLhSX-18" value="" style="image;html=1;image=img/lib/clip_art/networking/Switch_128x128.png" parent="1" vertex="1">
          <mxGeometry x="995" y="420" width="80" height="80" as="geometry" />
        </mxCell>
        <mxCell id="QXYiQhnaTf1eU_bBLhSX-19" value="" style="image;html=1;image=img/lib/clip_art/networking/Router_128x128.png" parent="1" vertex="1">
          <mxGeometry x="820" y="220" width="80" height="80" as="geometry" />
        </mxCell>
        <mxCell id="QXYiQhnaTf1eU_bBLhSX-20" value="" style="image;html=1;image=img/lib/clip_art/networking/Router_128x128.png" parent="1" vertex="1">
          <mxGeometry x="1150" y="210" width="80" height="80" as="geometry" />
        </mxCell>
        <mxCell id="QXYiQhnaTf1eU_bBLhSX-29" value="" style="image;html=1;image=img/lib/clip_art/networking/Switch_128x128.png" parent="1" vertex="1">
          <mxGeometry x="995" y="600" width="80" height="80" as="geometry" />
        </mxCell>
        <mxCell id="QXYiQhnaTf1eU_bBLhSX-33" value="" style="sketch=0;points=[[0.015,0.015,0],[0.985,0.015,0],[0.985,0.985,0],[0.015,0.985,0],[0.25,0,0],[0.5,0,0],[0.75,0,0],[1,0.25,0],[1,0.5,0],[1,0.75,0],[0.75,1,0],[0.5,1,0],[0.25,1,0],[0,0.75,0],[0,0.5,0],[0,0.25,0]];verticalLabelPosition=bottom;html=1;verticalAlign=top;aspect=fixed;align=center;pointerEvents=1;shape=mxgraph.cisco19.rect;prIcon=layer3_nexus_5k_switch;fillColor=#FAFAFA;strokeColor=#005073;" parent="1" vertex="1">
          <mxGeometry x="1020" y="40" width="50" height="50" as="geometry" />
        </mxCell>
        <mxCell id="QXYiQhnaTf1eU_bBLhSX-42" value="192.168.0.1" style="rounded=0;whiteSpace=wrap;html=1;" parent="1" vertex="1">
          <mxGeometry x="190" y="190" width="80" height="30" as="geometry" />
        </mxCell>
        <mxCell id="QXYiQhnaTf1eU_bBLhSX-44" value="192.168.0.2" style="rounded=0;whiteSpace=wrap;html=1;" parent="1" vertex="1">
          <mxGeometry x="545" y="170" width="80" height="30" as="geometry" />
        </mxCell>
        <mxCell id="QXYiQhnaTf1eU_bBLhSX-46" value="192.168.1.2" style="rounded=0;whiteSpace=wrap;html=1;" parent="1" vertex="1">
          <mxGeometry x="170" y="310" width="80" height="30" as="geometry" />
        </mxCell>
        <mxCell id="QXYiQhnaTf1eU_bBLhSX-48" value="192.168.1.3" style="rounded=0;whiteSpace=wrap;html=1;" parent="1" vertex="1">
          <mxGeometry x="560" y="320" width="80" height="30" as="geometry" />
        </mxCell>
        <mxCell id="QXYiQhnaTf1eU_bBLhSX-50" value="HSRP = 192.168.1.1" style="rounded=0;whiteSpace=wrap;html=1;" parent="1" vertex="1">
          <mxGeometry x="390" y="285" width="80" height="30" as="geometry" />
        </mxCell>
        <mxCell id="STOnMEpAf9jUWIuYAc8E-1" value="RR1&lt;div&gt;gig0/X&lt;/div&gt;" style="rounded=0;whiteSpace=wrap;html=1;fillColor=none;" parent="1" vertex="1">
          <mxGeometry x="120" y="235" width="80" height="50" as="geometry" />
        </mxCell>
        <mxCell id="STOnMEpAf9jUWIuYAc8E-3" value="RR2" style="rounded=0;whiteSpace=wrap;html=1;fillColor=none;" parent="1" vertex="1">
          <mxGeometry x="630" y="230" width="80" height="50" as="geometry" />
        </mxCell>
        <mxCell id="STOnMEpAf9jUWIuYAc8E-4" value="SR1&lt;div&gt;gig1/0/X&lt;/div&gt;" style="rounded=0;whiteSpace=wrap;html=1;fillColor=none;" parent="1" vertex="1">
          <mxGeometry x="455" y="10" width="80" height="50" as="geometry" />
        </mxCell>
        <mxCell id="STOnMEpAf9jUWIuYAc8E-5" value="SR2" style="rounded=0;whiteSpace=wrap;html=1;fillColor=none;" parent="1" vertex="1">
          <mxGeometry x="470" y="435" width="80" height="50" as="geometry" />
        </mxCell>
        <mxCell id="STOnMEpAf9jUWIuYAc8E-6" value="SR3" style="rounded=0;whiteSpace=wrap;html=1;fillColor=none;" parent="1" vertex="1">
          <mxGeometry x="300" y="602.5" width="80" height="50" as="geometry" />
        </mxCell>
        <mxCell id="STOnMEpAf9jUWIuYAc8E-7" value="SG3" style="rounded=0;whiteSpace=wrap;html=1;fillColor=none;" parent="1" vertex="1">
          <mxGeometry x="1145" y="602.5" width="80" height="50" as="geometry" />
        </mxCell>
        <mxCell id="STOnMEpAf9jUWIuYAc8E-8" value="SG2" style="rounded=0;whiteSpace=wrap;html=1;fillColor=none;" parent="1" vertex="1">
          <mxGeometry x="1120" y="445" width="80" height="50" as="geometry" />
        </mxCell>
        <mxCell id="STOnMEpAf9jUWIuYAc8E-10" value="SG1" style="rounded=0;whiteSpace=wrap;html=1;fillColor=none;" parent="1" vertex="1">
          <mxGeometry x="1090" y="20" width="80" height="50" as="geometry" />
        </mxCell>
        <mxCell id="STOnMEpAf9jUWIuYAc8E-11" value="RG1" style="rounded=0;whiteSpace=wrap;html=1;fillColor=none;" parent="1" vertex="1">
          <mxGeometry x="747" y="225" width="80" height="50" as="geometry" />
        </mxCell>
        <mxCell id="STOnMEpAf9jUWIuYAc8E-12" value="RG2" style="rounded=0;whiteSpace=wrap;html=1;fillColor=none;" parent="1" vertex="1">
          <mxGeometry x="1230" y="225" width="80" height="50" as="geometry" />
        </mxCell>
        <mxCell id="STOnMEpAf9jUWIuYAc8E-13" value="gig1/0/3" style="rounded=0;whiteSpace=wrap;html=1;" parent="1" vertex="1">
          <mxGeometry x="1007" y="560" width="56" height="30" as="geometry" />
        </mxCell>
        <mxCell id="STOnMEpAf9jUWIuYAc8E-14" value="Gig0/2" style="rounded=0;whiteSpace=wrap;html=1;" parent="1" vertex="1">
          <mxGeometry x="1720" y="370" width="60" height="30" as="geometry" />
        </mxCell>
        <mxCell id="STOnMEpAf9jUWIuYAc8E-15" value="Gig0/1" style="rounded=0;whiteSpace=wrap;html=1;" parent="1" vertex="1">
          <mxGeometry x="955" y="390" width="60" height="30" as="geometry" />
        </mxCell>
        <mxCell id="STOnMEpAf9jUWIuYAc8E-17" value="Gig0/1" style="rounded=0;whiteSpace=wrap;html=1;" parent="1" vertex="1">
          <mxGeometry x="1140" y="300" width="60" height="30" as="geometry" />
        </mxCell>
        <mxCell id="STOnMEpAf9jUWIuYAc8E-18" value="Gig0/1" style="rounded=0;whiteSpace=wrap;html=1;" parent="1" vertex="1">
          <mxGeometry x="895" y="300" width="60" height="30" as="geometry" />
        </mxCell>
        <mxCell id="STOnMEpAf9jUWIuYAc8E-19" value="Gig1/0/1" style="rounded=0;whiteSpace=wrap;html=1;" parent="1" vertex="1">
          <mxGeometry x="947" y="90" width="60" height="30" as="geometry" />
        </mxCell>
        <mxCell id="STOnMEpAf9jUWIuYAc8E-20" value="Gig1/0/1" style="rounded=0;whiteSpace=wrap;html=1;" parent="1" vertex="1">
          <mxGeometry x="1552" y="65" width="60" height="30" as="geometry" />
        </mxCell>
        <mxCell id="STOnMEpAf9jUWIuYAc8E-21" value="Gig1/0/2" style="rounded=0;whiteSpace=wrap;html=1;" parent="1" vertex="1">
          <mxGeometry x="1075" y="95" width="60" height="30" as="geometry" />
        </mxCell>
        <mxCell id="STOnMEpAf9jUWIuYAc8E-22" value="Gig0/0" style="rounded=0;whiteSpace=wrap;html=1;" parent="1" vertex="1">
          <mxGeometry x="895" y="180" width="60" height="30" as="geometry" />
        </mxCell>
        <mxCell id="STOnMEpAf9jUWIuYAc8E-23" value="Gig0/0" style="rounded=0;whiteSpace=wrap;html=1;" parent="1" vertex="1">
          <mxGeometry x="1120" y="180" width="60" height="30" as="geometry" />
        </mxCell>
        <mxCell id="STOnMEpAf9jUWIuYAc8E-24" value="fa0/2&lt;div&gt;trunked 5&lt;/div&gt;" style="rounded=0;whiteSpace=wrap;html=1;" parent="1" vertex="1">
          <mxGeometry x="510" y="390" width="60" height="30" as="geometry" />
        </mxCell>
        <mxCell id="STOnMEpAf9jUWIuYAc8E-25" value="Gig0/3" style="rounded=0;whiteSpace=wrap;html=1;" parent="1" vertex="1">
          <mxGeometry x="1000" y="485" width="70" height="30" as="geometry" />
        </mxCell>
        <mxCell id="DL3ehcjsagZbw3vedrS1-1" value="vlan 10 ip 192.168.0.3&lt;div&gt;gw: 192.168.0.4&lt;/div&gt;" style="rounded=0;whiteSpace=wrap;html=1;" parent="1" vertex="1">
          <mxGeometry x="540" y="20" width="140" height="30" as="geometry" />
        </mxCell>
        <mxCell id="DL3ehcjsagZbw3vedrS1-2" value="min laptop" style="verticalLabelPosition=bottom;sketch=0;aspect=fixed;html=1;verticalAlign=top;strokeColor=none;align=center;outlineConnect=0;shape=mxgraph.citrix.laptop_1;" parent="1" vertex="1">
          <mxGeometry x="109" y="435" width="91" height="77" as="geometry" />
        </mxCell>
        <mxCell id="DL3ehcjsagZbw3vedrS1-3" value="Gig1/0/1&lt;div&gt;trunked 10&lt;/div&gt;" style="rounded=0;whiteSpace=wrap;html=1;" parent="1" vertex="1">
          <mxGeometry x="302" y="120" width="85" height="30" as="geometry" />
        </mxCell>
        <mxCell id="PEFlAfjStANfE1CRH5ns-1" value="192.168.1.11" style="rounded=0;whiteSpace=wrap;html=1;" parent="1" vertex="1">
          <mxGeometry x="390" y="615" width="80" height="30" as="geometry" />
        </mxCell>
        <mxCell id="PEFlAfjStANfE1CRH5ns-2" value="192.168.1.10" style="rounded=0;whiteSpace=wrap;html=1;" parent="1" vertex="1">
          <mxGeometry x="382" y="450" width="80" height="30" as="geometry" />
        </mxCell>
        <mxCell id="PEFlAfjStANfE1CRH5ns-3" value="192.168.1.50" style="rounded=0;whiteSpace=wrap;html=1;" parent="1" vertex="1">
          <mxGeometry x="210" y="485" width="80" height="30" as="geometry" />
        </mxCell>
        <mxCell id="y-jnlxi5mLuKt4549uSV-1" value="lab pc" style="verticalLabelPosition=bottom;sketch=0;aspect=fixed;html=1;verticalAlign=top;strokeColor=none;align=center;outlineConnect=0;shape=mxgraph.citrix.laptop_1;" parent="1" vertex="1">
          <mxGeometry x="545" y="-147" width="91" height="77" as="geometry" />
        </mxCell>
        <mxCell id="y-jnlxi5mLuKt4549uSV-2" value="192.168.0.110" style="rounded=0;whiteSpace=wrap;html=1;" parent="1" vertex="1">
          <mxGeometry x="630" y="-100" width="80" height="30" as="geometry" />
        </mxCell>
        <mxCell id="y-jnlxi5mLuKt4549uSV-6" value="Gig1/0/4&lt;div&gt;access&lt;/div&gt;" style="rounded=0;whiteSpace=wrap;html=1;" parent="1" vertex="1">
          <mxGeometry x="520" y="-29.5" width="85" height="30" as="geometry" />
        </mxCell>
        <mxCell id="y-jnlxi5mLuKt4549uSV-7" value="192.168.1.12" style="rounded=0;whiteSpace=wrap;html=1;" parent="1" vertex="1">
          <mxGeometry x="995" y="620" width="80" height="30" as="geometry" />
        </mxCell>
        <mxCell id="y-jnlxi5mLuKt4549uSV-8" value="HSRP = 192.168.0.4" style="rounded=0;whiteSpace=wrap;html=1;" parent="1" vertex="1">
          <mxGeometry x="392" y="210" width="80" height="30" as="geometry" />
        </mxCell>
        <mxCell id="hpBl-z8wIQG-4cC4VtNf-1" value="fa0/4&amp;nbsp;&lt;div&gt;access 5&lt;/div&gt;" style="rounded=0;whiteSpace=wrap;html=1;" vertex="1" parent="1">
          <mxGeometry x="300" y="465" width="70" height="30" as="geometry" />
        </mxCell>
        <mxCell id="hpBl-z8wIQG-4cC4VtNf-2" value="gig1/0/1 trunked 5,20&lt;div&gt;gig1/0/2 trunked 5 20&lt;/div&gt;" style="rounded=0;whiteSpace=wrap;html=1;" vertex="1" parent="1">
          <mxGeometry x="895" y="585" width="90" height="90" as="geometry" />
        </mxCell>
        <mxCell id="hpBl-z8wIQG-4cC4VtNf-3" value="DHCP RR1&lt;div&gt;&lt;div&gt;ip dhcp pool VLAN10_POOL&lt;/div&gt;&lt;div&gt;&amp;nbsp;network 192.168.0.0 255.255.255.0&lt;/div&gt;&lt;div&gt;&amp;nbsp;default-router 192.168.0.1&lt;/div&gt;&lt;div&gt;!&lt;/div&gt;&lt;div&gt;ip dhcp pool VLAN5_POOL&lt;/div&gt;&lt;div&gt;&amp;nbsp;network 192.168.1.0 255.255.255.0&lt;/div&gt;&lt;div&gt;&amp;nbsp;default-router 192.168.1.1&lt;/div&gt;&lt;/div&gt;" style="rounded=0;whiteSpace=wrap;html=1;" vertex="1" parent="1">
          <mxGeometry y="125" width="120" height="260" as="geometry" />
        </mxCell>
      </root>
    </mxGraphModel>
  </diagram>
</mxfile>
